<mxfile host="app.diagrams.net" modified="2024-06-20T17:17:06.706Z" agent="Mozilla/5.0 (Windows NT 10.0; Win64; x64) AppleWebKit/537.36 (KHTML, like Gecko) Chrome/126.0.0.0 Safari/537.36" etag="MoygtnXTaLlafidqdiNo" version="24.5.5" type="device">
  <diagram name="Page-1" id="Z2VON4-MzIzl6sSVADp_">
    <mxGraphModel dx="989" dy="537" grid="1" gridSize="10" guides="1" tooltips="1" connect="1" arrows="1" fold="1" page="1" pageScale="1" pageWidth="850" pageHeight="1100" math="0" shadow="0">
      <root>
        <mxCell id="0" />
        <mxCell id="1" parent="0" />
      </root>
    </mxGraphModel>
  </diagram>
</mxfile>
